<svg width="32" height="32" viewBox="0 0 32 32" fill="none" xmlns="http://www.w3.org/2000/svg">
<path fill-rule="evenodd" clip-rule="evenodd" d="M32 16L31.9996 17.6L31.9984 18.2626L31.9964 18.7711L31.9936 19.1996L31.99 19.5769L31.9856 19.918L31.9804 20.2315L31.9744 20.5231L31.9676 20.7967L31.96 21.0554L31.9516 21.3012L31.9424 21.5359L31.9324 21.7607L31.9215 21.9769L31.9099 22.1851L31.8975 22.3863L31.8843 22.5811L31.8702 22.7699L31.8554 22.9532L31.8397 23.1316L31.8233 23.3052L31.806 23.4744L31.7879 23.6395L31.769 23.8007L31.7493 23.9583L31.7288 24.1125L31.7075 24.2634L31.6854 24.4111L31.6624 24.5559L31.6386 24.6979L31.614 24.8371L31.5886 24.9738L31.5624 25.1079L31.5353 25.2397L31.5074 25.3692L31.4787 25.4964L31.4491 25.6215L31.4188 25.7445L31.3876 25.8655L31.3555 25.9845L31.3226 26.1017L31.2889 26.217L31.2544 26.3305L31.219 26.4422L31.1827 26.5523L31.1456 26.6607L31.1077 26.7675L31.0689 26.8727L31.0292 26.9763L30.9887 27.0785L30.9473 27.1791L30.9051 27.2783L30.862 27.3761L30.818 27.4725L30.7732 27.5675L30.7274 27.6612L30.6808 27.7535L30.6333 27.8446L30.585 27.9343L30.5357 28.0228L30.4855 28.1101L30.4344 28.1961L30.3825 28.2809L30.3296 28.3645L30.2758 28.447L30.221 28.5283L30.1654 28.6084L30.1088 28.6874L30.0513 28.7653L29.9928 28.8421L29.9334 28.9178L29.8731 28.9924L29.8118 29.0659L29.7495 29.1384L29.6862 29.2098L29.622 29.2802L29.5567 29.3495L29.4905 29.4179L29.4233 29.4852L29.355 29.5515L29.2858 29.6168L29.2155 29.6811L29.1441 29.7445L29.0717 29.8068L28.9983 29.8682L28.9238 29.9286L28.8482 29.9881L28.7715 30.0467L28.6937 30.1043L28.6148 30.1609L28.5347 30.2166L28.4535 30.2714L28.3712 30.3253L28.2876 30.3783L28.2029 30.4303L28.117 30.4815L28.0298 30.5317L27.9414 30.581L27.8518 30.6295L27.7608 30.6771L27.6686 30.7237L27.575 30.7695L27.4801 30.8145L27.3839 30.8585L27.2862 30.9017L27.1871 30.944L27.0866 30.9854L26.9845 31.026L26.881 31.0657L26.7759 31.1046L26.6693 31.1426L26.561 31.1798L26.4511 31.2161L26.3394 31.2515L26.2261 31.2862L26.1109 31.32L25.9939 31.3529L25.8751 31.385L25.7542 31.4163L25.6314 31.4467L25.5065 31.4763L25.3794 31.5051L25.2501 31.5331L25.1185 31.5602L24.9846 31.5865L24.8481 31.612L24.7091 31.6367L24.5673 31.6605L24.4228 31.6835L24.2752 31.7057L24.1246 31.7271L23.9708 31.7477L23.8134 31.7675L23.6525 31.7864L23.4877 31.8046L23.3188 31.8219L23.1456 31.8384L22.9676 31.8541L22.7847 31.8691L22.5963 31.8832L22.4021 31.8965L22.2014 31.9089L21.9937 31.9206L21.7783 31.9315L21.5542 31.9416L21.3203 31.9509L21.0754 31.9593L20.8179 31.967L20.5455 31.9739L20.2554 31.9799L19.9439 31.9852L19.6053 31.9897L19.2312 31.9933L18.8076 31.9962L18.3073 31.9983L17.6625 31.9995L16.4515 32L14.465 31.9996L13.7828 31.9985L13.2659 31.9966L12.8324 31.9938L12.4516 31.9903L12.108 31.986L11.7926 31.9808L11.4994 31.9749L11.2244 31.9681L10.9647 31.9606L10.7179 31.9523L10.4824 31.9431L10.2568 31.9332L10.04 31.9224L9.83115 31.9109L9.62942 31.8985L9.43419 31.8853L9.24492 31.8714L9.06114 31.8566L8.88244 31.841L8.70847 31.8246L8.53891 31.8074L8.37348 31.7894L8.21194 31.7706L8.05406 31.7509L7.89965 31.7305L7.74852 31.7092L7.60052 31.6871L7.4555 31.6642L7.31331 31.6405L7.17385 31.616L7.03698 31.5906L6.90262 31.5645L6.77067 31.5375L6.64102 31.5096L6.51361 31.481L6.38836 31.4515L6.26519 31.4212L6.14405 31.3901L6.02486 31.3581L5.90757 31.3253L5.79213 31.2916L5.67848 31.2571L5.56658 31.2218L5.45639 31.1856L5.34786 31.1486L5.24094 31.1107L5.13562 31.072L5.03184 31.0324L4.92958 30.9919L4.8288 30.9506L4.72948 30.9085L4.63159 30.8654L4.53509 30.8215L4.43997 30.7767L4.3462 30.7311L4.25375 30.6846L4.16261 30.6371L4.07275 30.5888L3.98416 30.5396L3.89681 30.4895L3.81069 30.4385L3.72578 30.3866L3.64206 30.3338L3.55952 30.2801L3.47814 30.2254L3.3979 30.1698L3.31881 30.1133L3.24083 30.0559L3.16396 29.9975L3.08818 29.9382L3.01349 29.8779L2.93987 29.8167L2.86732 29.7545L2.79581 29.6913L2.72535 29.6271L2.65592 29.562L2.58751 29.4958L2.52012 29.4287L2.45373 29.3605L2.38835 29.2913L2.32395 29.2211L2.26053 29.1498L2.19809 29.0775L2.13662 29.0042L2.0761 28.9297L2.01655 28.8542L1.95794 28.7776L1.90027 28.6999L1.84355 28.6211L1.78775 28.5411L1.73288 28.46L1.67893 28.3777L1.6259 28.2943L1.57377 28.2097L1.52256 28.1238L1.47224 28.0368L1.42283 27.9485L1.3743 27.8589L1.32667 27.7681L1.27992 27.676L1.23405 27.5825L1.18906 27.4877L1.14495 27.3916L1.10171 27.294L1.05933 27.195L1.01782 27.0946L0.977173 26.9927L0.937383 26.8893L0.898449 26.7843L0.860369 26.6778L0.823139 26.5697L0.786757 26.4599L0.751221 26.3484L0.716528 26.2352L0.682676 26.1202L0.649663 26.0033L0.617487 25.8846L0.586145 25.7639L0.555636 25.6412L0.525958 25.5165L0.49711 25.3896L0.469088 25.2605L0.441892 25.1291L0.41552 24.9953L0.389971 24.8591L0.365242 24.7202L0.341333 24.5787L0.318242 24.4344L0.295969 24.2871L0.274511 24.1367L0.253867 23.9831L0.234036 23.8261L0.215018 23.6654L0.196811 23.501L0.179415 23.3324L0.162827 23.1595L0.147048 22.982L0.132077 22.7994L0.117912 22.6115L0.104553 22.4178L0.0919999 22.2176L0.0802512 22.0105L0.0693066 21.7957L0.0591656 21.5723L0.0498275 21.3393L0.0412919 21.0954L0.0335585 20.8389L0.0266267 20.5678L0.0204963 20.2792L0.0151669 19.9696L0.0106382 19.6334L0.00691015 19.2626L0.0039824 18.8436L0.00185486 18.351L0.000527415 17.7227L0 16.6385L0.000272589 14.5329L0.00134519 13.8293L0.00321787 13.3034L0.00589072 12.8647L0.00936386 12.4804L0.0136375 12.1343L0.0187118 11.8168L0.024587 11.5221L0.0312635 11.2457L0.0387416 10.9848L0.0470216 10.7371L0.056104 10.5008L0.0659892 10.2744L0.0766778 10.057L0.0881703 9.8475L0.100467 9.64523L0.113569 9.4495L0.127477 9.25977L0.142192 9.07557L0.157713 8.89648L0.174043 8.72214L0.191182 8.55224L0.209131 8.38649L0.22789 8.22465L0.247462 8.06649L0.267846 7.91181L0.289045 7.76043L0.311059 7.61218L0.333889 7.46693L0.357537 7.32452L0.382005 7.18484L0.407293 7.04778L0.433402 6.91322L0.460336 6.78107L0.488094 6.65125L0.516679 6.52367L0.546093 6.39824L0.576337 6.27491L0.607413 6.15361L0.639323 6.03427L0.672069 5.91683L0.705654 5.80124L0.740078 5.68745L0.775346 5.57542L0.811458 5.46509L0.848418 5.35642L0.886227 5.24939L0.924889 5.14394L0.964405 5.04004L1.00478 4.93766L1.04602 4.83676L1.08812 4.73733L1.13108 4.63932L1.17492 4.54271L1.21963 4.44748L1.26521 4.3536L1.31168 4.26105L1.35903 4.16981L1.40727 4.07985L1.45641 3.99116L1.50643 3.90371L1.55736 3.81749L1.6092 3.73248L1.66194 3.64867L1.7156 3.56603L1.77017 3.48456L1.82567 3.40424L1.8821 3.32505L1.93947 3.24698L1.99778 3.17003L2.05703 3.09416L2.11724 3.01939L2.1784 2.94568L2.24053 2.87304L2.30364 2.80146L2.36772 2.73091L2.4328 2.6614L2.49887 2.59291L2.56594 2.52544L2.63402 2.45897L2.70312 2.3935L2.77326 2.32903L2.84443 2.26553L2.91665 2.20301L2.98993 2.14146L3.06427 2.08087L3.1397 2.02124L3.21622 1.96256L3.29385 1.90482L3.37259 1.84802L3.45246 1.79215L3.53347 1.7372L3.61564 1.68318L3.69898 1.63007L3.78351 1.57788L3.86925 1.52659L3.9562 1.4762L4.0444 1.42672L4.13385 1.37812L4.22458 1.33042L4.31661 1.2836L4.40996 1.23766L4.50464 1.1926L4.6007 1.14842L4.69815 1.10511L4.79701 1.06266L4.89732 1.02108L4.99911 0.980365L5.1024 0.940507L5.20722 0.901505L5.31363 0.863357L5.42164 0.826059L5.5313 0.78961L5.64265 0.754007L5.75573 0.719247L5.8706 0.685328L5.98729 0.652249L6.10587 0.620006L6.22639 0.588598L6.34891 0.558023L6.47349 0.528279L6.6002 0.499364L6.72912 0.471276L6.86033 0.444015L6.99392 0.417577L7.12997 0.391962L7.2686 0.367169L7.4099 0.343194L7.55401 0.320039L7.70105 0.2977L7.85116 0.276177L8.00451 0.255468L8.16126 0.235573L8.32161 0.21649L8.48578 0.198219L8.65399 0.180758L8.82653 0.164106L9.00369 0.148262L9.18581 0.133227L9.37328 0.118998L9.56656 0.105575L9.76615 0.0929573L9.97268 0.0811446L10.1868 0.070136L10.4095 0.059931L10.6417 0.050529L10.8847 0.0419296L11.1402 0.0341322L11.41 0.0271366L11.697 0.0209424L12.0048 0.0155492L12.3386 0.0109569L12.7063 0.00716501L13.1207 0.00417354L13.606 0.00198228L14.2191 0.000591122L15.218 0L17.3958 0.000208882L18.1232 0.00121778L18.6585 0.00302674L19.1026 0.00563586L19.4905 0.00904527L19.8393 0.0132551L20.1588 0.0182657L20.4552 0.0240771L20.7328 0.0306898L20.9949 0.038104L21.2436 0.0463201L21.4808 0.0553386L21.7079 0.0651599L21.926 0.0757845L22.1361 0.0872129L22.3389 0.0994458L22.5351 0.112484L22.7253 0.126327L22.9099 0.140978L23.0894 0.156435L23.2641 0.1727L23.4344 0.189775L23.6004 0.207659L23.7626 0.226354L23.921 0.245861L24.076 0.266181L24.2276 0.287314L24.3761 0.309263L24.5216 0.332029L24.6642 0.355612L24.8041 0.380014L24.9414 0.405236L25.0761 0.43128L25.2085 0.458148L25.3385 0.485841L25.4662 0.51436L25.5918 0.543708L25.7153 0.573885L25.8368 0.604895L25.9563 0.636739L26.0739 0.669418L26.1896 0.702936L26.3035 0.737294L26.4157 0.772494L26.5262 0.808538L26.635 0.84543L26.7421 0.883172L26.8477 0.921766L26.9517 0.961214L27.0542 1.00152L27.1552 1.04269L27.2548 1.08472L27.3529 1.12762L27.4496 1.17138L27.545 1.21602L27.6389 1.26154L27.7316 1.30794L27.8229 1.35522L27.913 1.40339L28.0018 1.45245L28.0893 1.5024L28.1757 1.55326L28.2608 1.60502L28.3447 1.65769L28.4274 1.71128L28.509 1.76578L28.5894 1.82121L28.6687 1.87756L28.7468 1.93485L28.8239 1.99309L28.8998 2.05226L28.9747 2.11239L29.0485 2.17348L29.1212 2.23554L29.1929 2.29857L29.2635 2.36257L29.3331 2.42757L29.4017 2.49356L29.4692 2.56055L29.5357 2.62855L29.6013 2.69757L29.6659 2.76762L29.7294 2.83871L29.792 2.91084L29.8537 2.98404L29.9143 3.0583L29.974 3.13364L30.0328 3.21008L30.0906 3.28761L30.1475 3.36626L30.2034 3.44604L30.2584 3.52696L30.3125 3.60904L30.3657 3.69229L30.418 3.77673L30.4693 3.86236L30.5198 3.94922L30.5694 4.03732L30.618 4.12667L30.6658 4.2173L30.7127 4.30922L30.7587 4.40246L30.8038 4.49704L30.8481 4.59299L30.8915 4.69032L30.934 4.78907L30.9756 4.88927L31.0164 4.99093L31.0563 5.0941L31.0954 5.19881L31.1336 5.30508L31.171 5.41296L31.2075 5.52249L31.2432 5.63371L31.278 5.74665L31.312 5.86137L31.3451 5.97792L31.3774 6.09635L31.4089 6.21671L31.4396 6.33906L31.4694 6.46347L31.4983 6.59002L31.5265 6.71876L31.5538 6.84979L31.5803 6.98318L31.606 7.11903L31.6309 7.25745L31.6549 7.39854L31.6781 7.54242L31.7005 7.68922L31.7221 7.83908L31.7429 7.99216L31.7628 8.14863L31.782 8.30869L31.8003 8.47254L31.8179 8.64043L31.8346 8.81261L31.8505 8.98939L31.8656 9.1711L31.8799 9.35813L31.8934 9.55093L31.906 9.75L31.9179 9.95595L31.929 10.1695L31.9393 10.3914L31.9487 10.6228L31.9574 10.8649L31.9653 11.1193L31.9723 11.3879L31.9786 11.6735L31.984 11.9794L31.9887 12.3109L31.9925 12.6755L31.9956 13.0856L31.9979 13.5638L31.9993 14.1628L32 15.097L32 16Z" fill="#F4F4F4"/>
</svg>
