<svg width="40" height="40" viewBox="0 0 40 40" fill="none" xmlns="http://www.w3.org/2000/svg">
<path fill-rule="evenodd" clip-rule="evenodd" d="M40 20L39.9995 22L39.998 22.8283L39.9955 23.4638L39.992 23.9994L39.9875 24.4712L39.982 24.8975L39.9755 25.2893L39.968 25.6538L39.9595 25.9959L39.95 26.3193L39.9395 26.6265L39.928 26.9199L39.9154 27.2009L39.9019 27.4711L39.8874 27.7314L39.8719 27.9829L39.8553 28.2263L39.8378 28.4624L39.8192 28.6916L39.7997 28.9144L39.7791 29.1315L39.7575 29.343L39.7349 29.5494L39.7113 29.7509L39.6867 29.9479L39.661 30.1406L39.6344 30.3292L39.6067 30.5139L39.578 30.6949L39.5483 30.8723L39.5175 31.0464L39.4857 31.2172L39.4529 31.3849L39.4191 31.5497L39.3842 31.7115L39.3484 31.8705L39.3114 32.0269L39.2734 32.1806L39.2344 32.3319L39.1944 32.4807L39.1533 32.6271L39.1111 32.7712L39.0679 32.9131L39.0237 33.0528L38.9784 33.1904L38.932 33.3259L38.8846 33.4593L38.8361 33.5909L38.7865 33.7204L38.7359 33.8481L38.6842 33.9739L38.6314 34.0979L38.5775 34.2202L38.5225 34.3406L38.4664 34.4594L38.4093 34.5765L38.351 34.6919L38.2917 34.8057L38.2312 34.9179L38.1696 35.0285L38.1069 35.1376L38.043 35.2451L37.9781 35.3511L37.912 35.4557L37.8447 35.5587L37.7763 35.6603L37.7067 35.7605L37.636 35.8593L37.5641 35.9566L37.4911 36.0526L37.4168 36.1472L37.3413 36.2405L37.2647 36.3324L37.1868 36.423L37.1078 36.5123L37.0275 36.6002L36.9459 36.6869L36.8631 36.7723L36.7791 36.8565L36.6938 36.9394L36.6072 37.021L36.5193 37.1014L36.4302 37.1806L36.3397 37.2585L36.2479 37.3353L36.1547 37.4108L36.0602 37.4852L35.9643 37.5583L35.8671 37.6303L35.7684 37.7011L35.6684 37.7708L35.5669 37.8393L35.4639 37.9066L35.3595 37.9728L35.2536 38.0379L35.1462 38.1018L35.0373 38.1646L34.9268 38.2263L34.8147 38.2869L34.701 38.3463L34.5858 38.4047L34.4688 38.4619L34.3502 38.5181L34.2298 38.5731L34.1077 38.6271L33.9839 38.68L33.8582 38.7318L33.7307 38.7825L33.6013 38.8322L33.4699 38.8807L33.3366 38.9283L33.2012 38.9747L33.0638 39.0201L32.9243 39.0644L32.7826 39.1077L32.6387 39.15L32.4924 39.1911L32.3438 39.2313L32.1928 39.2704L32.0392 39.3084L31.8831 39.3454L31.7243 39.3814L31.5627 39.4164L31.3982 39.4503L31.2307 39.4832L31.0601 39.515L30.8863 39.5458L30.7092 39.5756L30.5285 39.6044L30.3441 39.6322L30.1558 39.6589L29.9634 39.6847L29.7668 39.7094L29.5656 39.733L29.3596 39.7557L29.1485 39.7774L28.932 39.798L28.7096 39.8177L28.4809 39.8363L28.2454 39.854L28.0026 39.8706L27.7518 39.8862L27.4922 39.9008L27.2228 39.9144L26.9427 39.927L26.6504 39.9386L26.3443 39.9492L26.0223 39.9587L25.6818 39.9673L25.3193 39.9749L24.9299 39.9815L24.5066 39.9871L24.0391 39.9917L23.5095 39.9952L22.8841 39.9978L22.0781 39.9994L20.5644 40L18.0813 39.9996L17.2285 39.9981L16.5824 39.9957L16.0405 39.9923L15.5645 39.9879L15.1351 39.9825L14.7408 39.976L14.3743 39.9686L14.0306 39.9602L13.7058 39.9508L13.3974 39.9403L13.103 39.9289L12.821 39.9165L12.55 39.903L12.2889 39.8886L12.0368 39.8731L11.7927 39.8567L11.5562 39.8392L11.3264 39.8207L11.1031 39.8012L10.8856 39.7808L10.6736 39.7592L10.4668 39.7367L10.2649 39.7132L10.0676 39.6887L9.87456 39.6631L9.68565 39.6365L9.50065 39.6089L9.31937 39.5803L9.14164 39.5507L8.96731 39.52L8.79623 39.4883L8.62828 39.4556L8.46333 39.4218L8.30128 39.387L8.14202 39.3512L7.98545 39.3144L7.83149 39.2765L7.68006 39.2376L7.53107 39.1976L7.38446 39.1566L7.24016 39.1145L7.0981 39.0714L6.95823 39.0272L6.82048 38.982L6.68482 38.9357L6.55118 38.8884L6.41952 38.84L6.2898 38.7905L6.16198 38.7399L6.03601 38.6883L5.91185 38.6356L5.78948 38.5818L5.66886 38.5269L5.54996 38.4709L5.43275 38.4139L5.31719 38.3557L5.20326 38.2964L5.09094 38.236L4.9802 38.1745L4.87102 38.1119L4.76336 38.0481L4.65722 37.9833L4.55257 37.9172L4.4494 37.8501L4.34767 37.7818L4.24738 37.7123L4.14851 37.6417L4.05103 37.5699L3.95495 37.4969L3.86023 37.4227L3.76686 37.3474L3.67484 37.2708L3.58415 37.1931L3.49477 37.1141L3.40669 37.0339L3.3199 36.9524L3.23439 36.8698L3.15015 36.7858L3.06717 36.7006L2.98543 36.6141L2.90493 36.5264L2.82566 36.4373L2.74761 36.3469L2.67077 36.2552L2.59513 36.1622L2.52068 36.0678L2.44742 35.972L2.37534 35.8749L2.30443 35.7763L2.23469 35.6764L2.1661 35.575L2.09866 35.4722L2.03237 35.3679L1.96722 35.2621L1.9032 35.1548L1.8403 35.046L1.77853 34.9356L1.71788 34.8237L1.65834 34.7101L1.5999 34.595L1.54257 34.4782L1.48633 34.3597L1.43119 34.2395L1.37713 34.1175L1.32416 33.9938L1.27228 33.8683L1.22147 33.7409L1.17173 33.6116L1.12306 33.4804L1.07546 33.3473L1.02892 33.2121L0.983446 33.0748L0.939026 32.9355L0.89566 32.794L0.853345 32.6502L0.812079 32.5041L0.771858 32.3557L0.732681 32.2049L0.694545 32.0515L0.657448 31.8956L0.621387 31.737L0.58636 31.5756L0.552365 31.4114L0.5194 31.2441L0.487463 31.0738L0.456553 30.9003L0.426666 30.7234L0.397803 30.543L0.369961 30.3589L0.343138 30.1709L0.317333 29.9789L0.292545 29.7826L0.268773 29.5818L0.246014 29.3762L0.224268 29.1655L0.203534 28.9494L0.18381 28.7275L0.165096 28.4993L0.14739 28.2644L0.130692 28.0222L0.115 27.7721L0.100314 27.5132L0.0866333 27.2447L0.073957 26.9654L0.0622844 26.6741L0.0516149 26.3692L0.0419481 26.0486L0.0332834 25.7097L0.0256203 25.3491L0.0189586 24.962L0.0132978 24.5418L0.00863769 24.0782L0.00497801 23.5545L0.00231858 22.9388L0.000659269 22.1533L0 20.7981L0.000340736 18.1662L0.00168149 17.2866L0.00402234 16.6293L0.00736339 16.0809L0.0117048 15.6005L0.0170468 15.1678L0.0233897 14.7711L0.0307338 14.4026L0.0390794 14.0572L0.048427 13.731L0.058777 13.4214L0.07013 13.1259L0.0824865 12.843L0.0958472 12.5712L0.110213 12.3094L0.125584 12.0565L0.141962 11.8119L0.159346 11.5747L0.17774 11.3445L0.197142 11.1206L0.217554 10.9027L0.238978 10.6903L0.261413 10.4831L0.284863 10.2808L0.309327 10.0831L0.334808 9.88976L0.361306 9.70053L0.388824 9.51523L0.417362 9.33366L0.446922 9.15565L0.477506 8.98105L0.509116 8.80972L0.541753 8.64153L0.57542 8.47634L0.610118 8.31406L0.645849 8.15458L0.682616 7.99781L0.720421 7.84364L0.759266 7.69201L0.799154 7.54283L0.840087 7.39604L0.882067 7.25155L0.925098 7.10932L0.969182 6.96927L1.01432 6.83136L1.06052 6.69553L1.10778 6.56173L1.15611 6.42992L1.20551 6.30005L1.25598 6.17207L1.30752 6.04595L1.36014 5.92166L1.41385 5.79915L1.46865 5.67839L1.52453 5.55935L1.58152 5.442L1.6396 5.32632L1.69879 5.21226L1.75909 5.09981L1.82051 4.98895L1.88304 4.87964L1.9467 4.77186L2.01149 4.66561L2.07742 4.56084L2.14449 4.45754L2.21271 4.3557L2.28209 4.2553L2.35263 4.15631L2.42434 4.05873L2.49722 3.96253L2.57129 3.86771L2.64655 3.77423L2.723 3.68211L2.80067 3.59131L2.87955 3.50182L2.95966 3.41364L3.041 3.32675L3.12358 3.24114L3.20742 3.1568L3.29253 3.07371L3.3789 2.99188L3.46657 2.91128L3.55553 2.83191L3.64581 2.75377L3.73741 2.67683L3.83034 2.60109L3.92463 2.52655L4.02028 2.4532L4.11731 2.38102L4.21573 2.31002L4.31557 2.24018L4.41684 2.1715L4.51955 2.10398L4.62373 2.03759L4.72939 1.97235L4.83656 1.90824L4.94525 1.84526L5.0555 1.7834L5.16731 1.72265L5.28073 1.66302L5.39576 1.6045L5.51244 1.54708L5.63081 1.49075L5.75087 1.43552L5.87268 1.38138L5.99626 1.32833L6.12165 1.27635L6.24888 1.22546L6.37799 1.17563L6.50903 1.12688L6.64203 1.0792L6.77705 1.03257L6.91412 0.987013L7.05331 0.942509L7.19467 0.899059L7.33825 0.85666L7.48412 0.815311L7.63234 0.775007L7.78299 0.735747L7.93613 0.697528L8.09186 0.660348L8.25025 0.624205L8.4114 0.589095L8.57542 0.555018L8.7424 0.521972L8.91247 0.489953L9.08575 0.458961L9.26238 0.428993L9.44251 0.400048L9.62631 0.372125L9.81395 0.345221L10.0056 0.319335L10.2016 0.294466L10.402 0.270613L10.6072 0.247774L10.8175 0.225947L11.0332 0.205132L11.2546 0.185328L11.4823 0.166533L11.7166 0.148747L11.9582 0.131968L12.2077 0.116197L12.4658 0.101431L12.7336 0.0876701L13.0119 0.0749138L13.3022 0.0631613L13.6059 0.052412L13.9252 0.0426653L14.2625 0.0339208L14.6213 0.026178L15.0061 0.0194366L15.4233 0.0136961L15.8829 0.00895627L16.4009 0.00521692L17.0075 0.00247785L17.7739 0.000738903L19.0224 0L21.7448 0.000261103L22.6541 0.00152222L23.3231 0.00378343L23.8783 0.00704483L24.3632 0.0113066L24.7991 0.0165689L25.1984 0.0228321L25.569 0.0300964L25.916 0.0383622L26.2436 0.04763L26.5545 0.0579002L26.851 0.0691733L27.1348 0.0814499L27.4075 0.0947306L27.6701 0.109016L27.9236 0.124307L28.1689 0.140605L28.4066 0.157909L28.6374 0.176222L28.8618 0.195544L29.0801 0.215876L29.293 0.237219L29.5005 0.259574L29.7032 0.282943L29.9013 0.307326L30.095 0.332726L30.2845 0.359143L30.4701 0.386579L30.652 0.415036L30.8303 0.444515L31.0051 0.475017L31.1767 0.506545L31.3452 0.5391L31.5106 0.572685L31.6731 0.607301L31.8328 0.64295L31.9898 0.679634L32.1441 0.717357L32.296 0.756119L32.4453 0.795923L32.5923 0.836773L32.737 0.87867L32.8794 0.921617L33.0196 0.965617L33.1577 1.01067L33.2937 1.05679L33.4277 1.10397L33.5596 1.15221L33.6897 1.20152L33.8178 1.2519L33.944 1.30336L34.0685 1.3559L34.1911 1.40952L34.312 1.46423L34.4312 1.52003L34.5487 1.57692L34.6645 1.63492L34.7787 1.69402L34.8913 1.75423L35.0023 1.81556L35.1117 1.878L35.2196 1.94158L35.326 2.00628L35.4308 2.07211L35.5343 2.1391L35.6362 2.20722L35.7367 2.27651L35.8358 2.34695L35.9335 2.41857L36.0298 2.49136L36.1248 2.56533L36.2183 2.64049L36.3106 2.71685L36.4015 2.79442L36.4911 2.87321L36.5794 2.95322L36.6664 3.03446L36.7521 3.11694L36.8365 3.20068L36.9197 3.28569L37.0016 3.37196L37.0823 3.45953L37.1618 3.54839L37.24 3.63856L37.3171 3.73005L37.3929 3.82288L37.4675 3.91705L37.541 4.0126L37.6132 4.10951L37.6843 4.20783L37.7543 4.30755L37.823 4.4087L37.8907 4.5113L37.9571 4.61536L38.0225 4.72091L38.0867 4.82795L38.1497 4.93653L38.2117 5.04665L38.2725 5.15834L38.3322 5.27162L38.3909 5.38652L38.4484 5.50308L38.5048 5.6213L38.5601 5.74123L38.6143 5.8629L38.6675 5.98634L38.7195 6.11158L38.7705 6.23867L38.8204 6.36763L38.8692 6.49851L38.917 6.63135L38.9637 6.76621L39.0094 6.90312L39.054 7.04213L39.0975 7.18332L39.14 7.32672L39.1814 7.4724L39.2218 7.62043L39.2611 7.77088L39.2994 7.92383L39.3367 8.07934L39.3729 8.23752L39.4081 8.39845L39.4423 8.56223L39.4754 8.72897L39.5075 8.89879L39.5386 9.07181L39.5686 9.24817L39.5977 9.42802L39.6257 9.61152L39.6526 9.79885L39.6786 9.9902L39.7036 10.1858L39.7275 10.3859L39.7504 10.5907L39.7723 10.8005L39.7932 11.0158L39.8131 11.2367L39.832 11.4639L39.8498 11.6977L39.8667 11.9387L39.8826 12.1875L39.8974 12.4449L39.9112 12.7119L39.9241 12.9893L39.9359 13.2786L39.9467 13.5812L39.9566 13.8991L39.9654 14.2349L39.9732 14.5918L39.98 14.9743L39.9859 15.3887L39.9907 15.8444L39.9945 16.3569L39.9973 16.9548L39.9991 17.7035L39.9999 18.8712L40 20Z" fill="#F4F4F4"/>
</svg>
